# xmcd CD database file
#
# Track frame offsets:
#	150
#	17696
#	31762
#	47185
#	64813
#	82046
#	99516
#	117895
#	137907
#	152363
#
# Disc length: 2219 seconds
#
# Revision: 1
# Processed by: cddbd v1.5.2PL0 Copyright (c) Steve Scherf et al.
# Submitted via: CDex 1.51
#
DISCID=7908a90a
DTITLE=Jaron and The Long Road To Love - Getting Dressed In The Dark
DYEAR=2010
DGENRE=Country
TTITLE0=Petals Back On The Rose
TTITLE1=Meantime Girl
TTITLE2=Beat Back Love
TTITLE3=Without Her Leaving
TTITLE4=It's A Good Thing
TTITLE5=Without A Woman I Love
TTITLE6=Kill Me For Loving You
TTITLE7=I Hope You Hit Traffic
TTITLE8=Pray For You
TTITLE9=That's Beautiful To Me
EXTD=YEAR: 2010
EXTT0=
EXTT1=
EXTT2=
EXTT3=
EXTT4=
EXTT5=
EXTT6=
EXTT7=
EXTT8=
EXTT9=
PLAYORDER=
